<svg width="200" height="60" viewBox="0 0 200 60" fill="none" xmlns="http://www.w3.org/2000/svg">
  <!-- Background circle for the icon -->
  <circle cx="30" cy="30" r="25" fill="#2196F3" opacity="0.1"/>
  
  <!-- Headphones/Support icon -->
  <path d="M30 12C22.268 12 16 18.268 16 26V34C16 35.104 16.896 36 18 36H20C21.104 36 22 35.104 22 34V30C22 28.896 21.104 28 20 28H18.09C18.566 21.174 23.688 16 30 16C36.312 16 41.434 21.174 41.91 28H40C38.896 28 38 28.896 38 30V34C38 35.104 38.896 36 40 36H42C43.104 36 44 35.104 44 34V26C44 18.268 37.732 12 30 12Z" fill="#2196F3"/>
  
  <!-- Flow lines -->
  <path d="M50 20L54 22L50 24" stroke="#2196F3" stroke-width="2" stroke-linecap="round" stroke-linejoin="round"/>
  <path d="M50 30L54 32L50 34" stroke="#2196F3" stroke-width="2" stroke-linecap="round" stroke-linejoin="round"/>
  <path d="M50 40L54 42L50 44" stroke="#2196F3" stroke-width="2" stroke-linecap="round" stroke-linejoin="round"/>
  
  <!-- DeskFlow text -->
  <g font-family="Arial, sans-serif" font-weight="600">
    <text x="70" y="25" font-size="18" fill="#2C3E50">Desk</text>
    <text x="70" y="42" font-size="18" fill="#2196F3">Flow</text>
  </g>
  
  <!-- Tagline -->
  <text x="70" y="52" font-size="8" fill="#7F8C8D" font-family="Arial, sans-serif">Professional Helpdesk System</text>
</svg> 